# This file uses meters as units for non-parametric coordinates.

mtllib broken rock pillar.mtl
g default
v -68.788933 1.391195 68.788933
v -22.929644 1.391195 68.788933
v 22.929640 1.391195 68.788933
v 68.788925 1.391195 70.107750
v -86.154312 180.433244 84.374924
v -46.060844 180.433244 84.374924
v -5.967373 180.433244 84.374924
v 34.126095 180.433244 84.374924
v -86.154312 180.433326 -35.905491
v -46.060844 180.433326 -35.905491
v -5.967373 180.433326 -35.905491
v 34.126095 180.433326 -35.905491
v -68.788918 1.391195 -68.788933
v -22.929642 1.391195 -68.788933
v 22.929638 1.391195 -68.788933
v 68.788918 1.391195 -70.107750
v -68.788933 1.391195 -22.929644
v -16.666668 1.391195 -16.666668
v 16.666664 1.391195 -16.666668
v 68.788925 1.391195 -23.369253
v -68.788933 1.391195 22.929640
v -16.666668 1.391195 16.666664
v 16.666664 1.391195 16.666664
v 68.788925 1.391195 23.369244
v 34.126099 180.433244 4.187979
v 34.126099 180.433244 44.281448
v -86.154312 180.433244 4.187979
v -86.154312 180.433244 44.281448
v -5.964866 182.396407 4.184388
v -46.071068 180.527660 4.171359
v -5.973457 180.621176 44.278011
v -46.058887 180.546552 44.279484
vt 0.375000 0.000000
vt 0.458333 0.000000
vt 0.541667 0.000000
vt 0.625000 0.000000
vt 0.375000 0.041667
vt 0.458333 0.041667
vt 0.541667 0.041667
vt 0.625000 0.041667
vt 0.375000 0.708333
vt 0.458333 0.708333
vt 0.541667 0.708333
vt 0.625000 0.708333
vt 0.375000 0.750000
vt 0.458333 0.750000
vt 0.541667 0.750000
vt 0.625000 0.750000
vt 0.375000 0.833333
vt 0.458333 0.833333
vt 0.541667 0.833333
vt 0.625000 0.833333
vt 0.375000 0.916667
vt 0.458333 0.916667
vt 0.541667 0.916667
vt 0.625000 0.916667
vt 0.375000 1.000000
vt 0.458333 1.000000
vt 0.541667 1.000000
vt 0.625000 1.000000
vt 0.875000 0.000000
vt 0.791667 0.000000
vt 0.708333 0.000000
vt 0.875000 0.041667
vt 0.791667 0.041667
vt 0.708333 0.041667
vt 0.125000 0.000000
vt 0.208333 0.000000
vt 0.291667 0.000000
vt 0.125000 0.041667
vt 0.208333 0.041667
vt 0.291667 0.041667
vt 0.000000 0.000000
vt 1.000000 0.000000
vt 1.000000 1.000000
vt 0.000000 1.000000
vt 0.000000 0.000000
vt 1.000000 0.000000
vt 1.000000 1.000000
vt 0.000000 1.000000
vt 0.000000 0.000000
vt 1.000000 0.000000
vt 1.000000 1.000000
vt 0.000000 1.000000
vt 0.000000 0.000000
vt 1.000000 0.000000
vt 1.000000 1.000000
vt 0.000000 1.000000
vt 0.000000 0.000000
vt 1.000000 0.000000
vt 1.000000 1.000000
vt 0.000000 1.000000
vt 0.000000 0.000000
vt 1.000000 0.000000
vt 1.000000 1.000000
vt 0.000000 1.000000
vt 0.000000 0.000000
vt 0.934661 0.000000
vt 1.000000 0.769317
vt 0.230680 0.834656
vt 0.202676 0.000000
vt 0.937087 0.000000
vt 0.864513 1.000000
vt 0.000000 0.772459
vt 0.000000 0.000000
vt 0.913224 0.000000
vt 1.000000 0.807119
vt 0.096441 0.903560
vn 0.000000 -0.086724 0.996232
vn 0.000000 -0.086724 0.996232
vn 0.000000 -0.086724 0.996232
vn 0.000000 -0.086724 0.996232
vn -0.012013 -0.085972 0.996225
vn -0.003252 -0.086522 0.996245
vn -0.015285 -0.085765 0.996198
vn -0.015285 -0.085765 0.996198
vn 0.000000 0.180642 -0.983549
vn 0.000000 0.180642 -0.983549
vn 0.000000 0.180642 -0.983549
vn 0.000000 0.180642 -0.983549
vn -0.004352 0.180903 -0.983491
vn -0.010772 0.181283 -0.983372
vn -0.015087 0.181534 -0.983269
vn -0.015087 0.181534 -0.983269
vn 0.000000 -1.000000 0.000000
vn 0.000000 -1.000000 -0.000000
vn 0.000000 -1.000000 -0.000000
vn 0.000000 -1.000000 0.000000
vn 0.000000 -1.000000 -0.000000
vn 0.000000 -1.000000 -0.000000
vn 0.000000 -1.000000 0.000000
vn 0.000000 -1.000000 0.000000
vn 0.000000 -1.000000 0.000000
vn 0.000000 -1.000000 0.000000
vn 0.000000 -1.000000 0.000000
vn 0.000000 -1.000000 0.000000
vn 0.000000 -1.000000 0.000000
vn 0.000000 -1.000000 0.000000
vn 0.000000 -1.000000 0.000001
vn 0.000000 -1.000000 0.000001
vn 0.981770 0.190072 0.000000
vn 0.981770 0.190072 0.000000
vn 0.981770 0.190072 0.000000
vn 0.981770 0.190072 0.000000
vn 0.981770 0.190072 0.000000
vn 0.981770 0.190072 0.000000
vn 0.981770 0.190072 0.000000
vn 0.981770 0.190072 0.000000
vn -0.995329 -0.096537 -0.000000
vn -0.995329 -0.096537 -0.000000
vn -0.995329 -0.096537 -0.000000
vn -0.995329 -0.096537 -0.000000
vn -0.995329 -0.096537 0.000000
vn -0.995329 -0.096538 0.000000
vn -0.995329 -0.096538 0.000000
vn -0.995329 -0.096538 0.000000
vn 0.024470 0.999401 -0.024467
vn 0.024470 0.999401 -0.024467
vn 0.024470 0.999401 -0.024467
vn 0.024470 0.999401 -0.024467
vn -0.023283 0.999400 -0.025651
vn -0.023283 0.999400 -0.025651
vn -0.023283 0.999400 -0.025651
vn -0.023283 0.999400 -0.025651
vn 0.026807 0.999396 0.022128
vn 0.026807 0.999396 0.022128
vn 0.026807 0.999396 0.022128
vn 0.026807 0.999396 0.022128
vn -0.001178 0.999999 -0.001176
vn -0.001178 0.999999 -0.001176
vn -0.001178 0.999999 -0.001176
vn -0.001178 0.999999 -0.001176
vn -0.024224 0.999467 0.021888
vn -0.024224 0.999467 0.021888
vn -0.024224 0.999467 0.021888
vn -0.024224 0.999467 0.021888
vn -0.002591 0.999997 -0.000235
vn -0.002591 0.999997 -0.000235
vn -0.002591 0.999997 -0.000235
vn -0.002591 0.999997 -0.000235
vn -0.001413 0.999998 0.001412
vn -0.001413 0.999998 0.001412
vn -0.001413 0.999998 0.001412
vn -0.001413 0.999998 0.001412
vn -0.000931 0.999993 0.003757
vn -0.000931 0.999993 0.003757
vn -0.000931 0.999993 0.003757
vn -0.000931 0.999993 0.003757
vn 0.002343 0.999995 0.002343
vn 0.002343 0.999995 0.002343
vn 0.002343 0.999995 0.002343
vn 0.002343 0.999995 0.002343
s 1
g pCube2
usemtl initialShadingGroup
f 1/1/1 2/2/2 6/6/3 5/5/4
f 2/2/2 3/3/5 7/7/6 6/6/3
f 3/3/5 4/4/7 8/8/8 7/7/6
s 2
f 9/9/9 10/10/10 14/14/11 13/13/12
f 10/10/10 11/11/13 15/15/14 14/14/11
f 11/11/13 12/12/15 16/16/16 15/15/14
s 3
f 13/13/17 14/14/18 18/18/19 17/17/20
f 14/14/18 15/15/21 19/19/22 18/18/19
f 15/15/21 16/16/23 20/20/24 19/19/22
f 17/17/20 18/18/19 22/22/25 21/21/26
f 18/18/19 19/19/22 23/23/27 22/22/25
f 19/19/22 20/20/24 24/24/28 23/23/27
f 21/21/26 22/22/25 2/26/29 1/25/30
f 22/22/25 23/23/27 3/27/31 2/26/29
f 23/23/27 24/24/28 4/28/32 3/27/31
s 4
f 20/30/33 16/29/34 12/32/35 25/33/36
f 24/31/37 20/30/33 25/33/36 26/34/38
f 4/4/39 24/31/37 26/34/38 8/8/40
s 5
f 13/35/41 17/36/42 27/39/43 9/38/44
f 17/36/42 21/37/45 28/40/46 27/39/43
f 21/37/45 1/1/47 5/5/48 28/40/46
s off
f 25/41/49 12/42/50 11/43/51 29/44/52
f 30/45/53 29/46/54 11/47/55 10/48/56
f 29/49/57 31/50/58 26/51/59 25/52/60
f 9/53/61 27/54/62 30/55/63 10/56/64
f 30/57/65 32/58/66 31/59/67 29/60/68
f 28/61/69 32/62/70 30/63/71 27/64/72
f 32/65/73 28/66/74 5/67/75 6/68/76
f 31/69/77 32/70/78 6/71/79 7/72/80
f 26/73/81 31/74/82 7/75/83 8/76/84
g default
v -86.154312 180.433244 86.804243
v 34.126095 180.433244 86.804243
v -87.816071 359.475312 31.129343
v 12.183922 359.475312 31.129343
v -87.816071 359.475394 -68.870654
v 12.183922 359.475394 -68.870654
v -86.154312 180.433326 -33.476172
v 34.126095 180.433326 -33.476172
vt 0.375000 0.041667
vt 0.625000 0.041667
vt 0.375000 0.083333
vt 0.625000 0.083333
vt 0.375000 0.666667
vt 0.625000 0.666667
vt 0.375000 0.708333
vt 0.625000 0.708333
vt 0.875000 0.041667
vt 0.875000 0.083333
vt 0.125000 0.041667
vt 0.125000 0.083333
vt 0.000000 0.000000
vt 1.000000 0.000000
vt 1.000000 1.000000
vt 0.000000 1.000000
vt 0.000000 0.000000
vt 1.000000 0.000000
vt 1.000000 1.000000
vt 0.000000 1.000000
vn 0.000000 0.296935 0.954898
vn 0.000000 0.296935 0.954898
vn 0.000000 0.296935 0.954898
vn 0.000000 0.296935 0.954898
vn 0.000000 -0.193935 -0.981014
vn 0.000000 -0.193935 -0.981014
vn 0.000000 -0.193935 -0.981014
vn 0.000000 -0.193935 -0.981014
vn 0.992574 0.121643 0.000000
vn 0.992574 0.121643 0.000000
vn 0.992574 0.121643 0.000000
vn 0.992574 0.121643 0.000000
vn -0.999957 -0.009281 -0.000000
vn -0.999957 -0.009281 -0.000000
vn -0.999957 -0.009281 -0.000000
vn -0.999957 -0.009281 -0.000000
vn 0.000000 1.000000 0.000001
vn 0.000000 1.000000 0.000001
vn 0.000000 1.000000 0.000001
vn 0.000000 1.000000 0.000001
vn 0.000000 -1.000000 -0.000001
vn 0.000000 -1.000000 -0.000001
vn 0.000000 -1.000000 -0.000001
vn 0.000000 -1.000000 -0.000001
s off
g pCube6
usemtl initialShadingGroup
f 36/80/85 35/79/86 33/77/87 34/78/88
f 40/84/89 39/83/90 37/81/91 38/82/92
f 38/86/93 36/80/94 34/78/95 40/85/96
f 35/79/97 37/88/98 39/87/99 33/77/100
f 37/89/101 35/90/102 36/91/103 38/92/104
f 33/93/105 39/94/106 40/95/107 34/96/108
g default
v -27.331814 821.972765 27.049139
v 27.331814 821.972765 27.049139
v -5.013069 1001.014854 4.730391
v 5.013065 1001.014854 4.730391
v -5.013069 1001.014854 -5.295740
v 5.013065 1001.014854 -5.295740
v -27.331814 821.972806 -27.614488
v 27.331814 821.972806 -27.614488
vt 0.375000 0.208333
vt 0.625000 0.208333
vt 0.375000 0.250000
vt 0.625000 0.250000
vt 0.375000 0.500000
vt 0.625000 0.500000
vt 0.375000 0.541667
vt 0.625000 0.541667
vt 0.875000 0.208333
vt 0.875000 0.250000
vt 0.125000 0.208333
vt 0.125000 0.250000
vt 0.000000 0.000000
vt 1.000000 0.000000
vt 1.000000 1.000000
vt 0.000000 1.000000
vn 0.000000 0.123699 0.992320
vn 0.000000 0.123699 0.992320
vn 0.000000 0.123699 0.992320
vn 0.000000 0.123699 0.992320
vn 0.000000 1.000000 0.000000
vn 0.000000 1.000000 0.000000
vn 0.000000 1.000000 0.000000
vn 0.000000 1.000000 0.000000
vn 0.000000 0.123699 -0.992320
vn 0.000000 0.123699 -0.992320
vn 0.000000 0.123699 -0.992320
vn 0.000000 0.123699 -0.992320
vn 0.992320 0.123699 0.000000
vn 0.992320 0.123699 0.000000
vn 0.992320 0.123699 0.000000
vn 0.992320 0.123699 0.000000
vn -0.992320 0.123699 0.000000
vn -0.992320 0.123699 0.000000
vn -0.992320 0.123699 0.000000
vn -0.992320 0.123699 0.000000
vn 0.000000 -1.000000 -0.000000
vn 0.000000 -1.000000 -0.000000
vn 0.000000 -1.000000 -0.000000
vn 0.000000 -1.000000 -0.000000
s off
g pCube10
usemtl initialShadingGroup
f 43/99/109 41/97/110 42/98/111 44/100/112
f 45/101/113 43/99/114 44/100/115 46/102/116
f 47/103/117 45/101/118 46/102/119 48/104/120
f 46/106/121 44/100/122 42/98/123 48/105/124
f 43/99/125 45/108/126 47/107/127 41/97/128
f 41/109/129 47/110/130 48/111/131 42/112/132
g default
v -32.118271 538.517385 73.241860
v 58.965935 538.517385 73.241860
v -51.354050 717.559470 12.698949
v 20.703684 717.559470 12.698949
v -51.354050 717.559511 -59.358786
v 20.703684 717.559511 -59.358786
v -32.118271 538.517459 -17.842343
v 58.965935 538.517459 -17.842343
vt 0.375000 0.125000
vt 0.625000 0.125000
vt 0.375000 0.166667
vt 0.625000 0.166667
vt 0.375000 0.583333
vt 0.625000 0.583333
vt 0.375000 0.625000
vt 0.625000 0.625000
vt 0.875000 0.125000
vt 0.875000 0.166667
vt 0.125000 0.125000
vt 0.125000 0.166667
vt 0.000000 0.000000
vt 1.000000 0.000000
vt 1.000000 1.000000
vt 0.000000 1.000000
vt 0.000000 0.000000
vt 1.000000 0.000000
vt 1.000000 1.000000
vt 0.000000 1.000000
vn 0.000000 0.320331 0.947306
vn 0.000000 0.320331 0.947306
vn 0.000000 0.320331 0.947306
vn 0.000000 0.320331 0.947306
vn 0.000000 -0.225888 -0.974153
vn 0.000000 -0.225888 -0.974153
vn 0.000000 -0.225888 -0.974153
vn 0.000000 -0.225888 -0.974153
vn 0.977919 0.208986 0.000000
vn 0.977919 0.208986 0.000000
vn 0.977919 0.208986 0.000000
vn 0.977919 0.208986 0.000000
vn -0.994278 -0.106822 -0.000000
vn -0.994278 -0.106822 -0.000000
vn -0.994278 -0.106822 -0.000000
vn -0.994278 -0.106822 -0.000000
vn 0.000000 1.000000 0.000001
vn 0.000000 1.000000 0.000001
vn 0.000000 1.000000 0.000001
vn 0.000000 1.000000 0.000001
vn 0.000000 -1.000000 -0.000001
vn 0.000000 -1.000000 -0.000001
vn 0.000000 -1.000000 -0.000001
vn 0.000000 -1.000000 -0.000001
s off
g pCube9
usemtl initialShadingGroup
f 51/115/133 49/113/134 50/114/135 52/116/136
f 55/119/137 53/117/138 54/118/139 56/120/140
f 52/116/141 50/114/142 56/121/143 54/122/144
f 53/124/145 55/123/146 49/113/147 51/115/148
f 53/125/149 51/126/150 52/127/151 54/128/152
f 49/129/153 55/130/154 56/131/155 50/132/156
g default
v -87.816071 359.475312 31.195403
v 12.183922 359.475312 31.195403
v -32.118271 538.517385 72.658527
v 58.965935 538.517385 72.658527
v -32.118271 538.517459 -18.425677
v 58.965935 538.517459 -18.425677
v -87.816071 359.475394 -68.804593
v 12.183922 359.475394 -68.804593
vt 0.375000 0.083333
vt 0.625000 0.083333
vt 0.375000 0.125000
vt 0.625000 0.125000
vt 0.375000 0.625000
vt 0.625000 0.625000
vt 0.375000 0.666667
vt 0.625000 0.666667
vt 0.875000 0.083333
vt 0.875000 0.125000
vt 0.125000 0.083333
vt 0.125000 0.125000
vt 0.000000 0.000000
vt 1.000000 0.000000
vt 1.000000 1.000000
vt 0.000000 1.000000
vt 0.000000 0.000000
vt 1.000000 0.000000
vt 1.000000 1.000000
vt 0.000000 1.000000
vn 0.000000 -0.225612 0.974217
vn 0.000000 -0.225612 0.974217
vn 0.000000 -0.225612 0.974217
vn 0.000000 -0.225612 0.974217
vn 0.000000 0.270862 -0.962618
vn 0.000000 0.270862 -0.962618
vn 0.000000 0.270862 -0.962618
vn 0.000000 0.270862 -0.962618
vn 0.967518 -0.252803 -0.000000
vn 0.967518 -0.252803 -0.000000
vn 0.967518 -0.252803 -0.000000
vn 0.967518 -0.252803 -0.000000
vn -0.954863 0.297046 0.000000
vn -0.954863 0.297046 0.000000
vn -0.954863 0.297046 0.000000
vn -0.954863 0.297046 0.000000
vn 0.000000 1.000000 0.000001
vn 0.000000 1.000000 0.000001
vn 0.000000 1.000000 0.000001
vn 0.000000 1.000000 0.000001
vn 0.000000 -1.000000 -0.000001
vn 0.000000 -1.000000 -0.000001
vn 0.000000 -1.000000 -0.000001
vn 0.000000 -1.000000 -0.000001
s off
g pCube7
usemtl initialShadingGroup
f 59/135/157 57/133/158 58/134/159 60/136/160
f 63/139/161 61/137/162 62/138/163 64/140/164
f 60/136/165 58/134/166 64/141/167 62/142/168
f 61/144/169 63/143/170 57/133/171 59/135/172
f 61/145/173 59/146/174 60/147/175 62/148/176
f 64/149/177 58/150/178 57/151/179 63/152/180
g default
v -51.354050 717.559470 9.057733
v 20.703684 717.559470 9.057733
v -27.331814 821.972765 26.769311
v 27.331814 821.972765 26.769311
v -27.331814 821.972806 -27.894316
v 27.331814 821.972806 -27.894316
v -51.354050 717.559511 -63.000002
v 20.703684 717.559511 -63.000002
vt 0.375000 0.166667
vt 0.625000 0.166667
vt 0.375000 0.208333
vt 0.625000 0.208333
vt 0.375000 0.541667
vt 0.625000 0.541667
vt 0.375000 0.583333
vt 0.625000 0.583333
vt 0.875000 0.166667
vt 0.875000 0.208333
vt 0.125000 0.166667
vt 0.125000 0.208333
vt 0.000000 0.000000
vt 1.000000 0.000000
vt 1.000000 1.000000
vt 0.000000 1.000000
vt 0.000000 0.000000
vt 1.000000 0.000000
vt 1.000000 1.000000
vt 0.000000 1.000000
vn 0.000000 -0.167241 0.985916
vn 0.000000 -0.167240 0.985916
vn 0.000000 -0.167240 0.985916
vn 0.000000 -0.167240 0.985916
vn 0.000000 0.318688 -0.947860
vn 0.000000 0.318688 -0.947860
vn 0.000000 0.318688 -0.947860
vn 0.000000 0.318688 -0.947860
vn 0.997991 -0.063352 -0.000000
vn 0.997991 -0.063352 -0.000000
vn 0.997991 -0.063352 -0.000000
vn 0.997991 -0.063352 -0.000000
vn -0.974541 0.224211 0.000000
vn -0.974541 0.224211 0.000000
vn -0.974541 0.224211 0.000000
vn -0.974541 0.224211 0.000000
vn 0.000000 1.000000 0.000000
vn 0.000000 1.000000 0.000000
vn 0.000000 1.000000 0.000000
vn 0.000000 1.000000 0.000000
vn 0.000000 -1.000000 -0.000001
vn 0.000000 -1.000000 -0.000001
vn 0.000000 -1.000000 -0.000001
vn 0.000000 -1.000000 -0.000001
s off
g pCube8
usemtl initialShadingGroup
f 67/155/181 65/153/182 66/154/183 68/156/184
f 71/159/185 69/157/186 70/158/187 72/160/188
f 68/156/189 66/154/190 72/161/191 70/162/192
f 69/164/193 71/163/194 65/153/195 67/155/196
f 69/165/197 67/166/198 68/167/199 70/168/200
f 65/169/201 71/170/202 72/171/203 66/172/204
