# This file uses centimeters as units for non-parametric coordinates.

mtllib ground-new.mtl
g default
v -83.331947 0.000000 36.000000
v -77.502998 0.000000 36.000000
v -76.002998 0.000000 36.000000
v -74.502998 0.000000 36.000000
v -73.002998 0.000000 36.000000
v -71.502998 0.000000 36.000000
v -70.002998 0.000000 36.000000
v -68.502998 0.000000 36.000000
v -67.002998 0.000000 36.000000
v -65.502998 0.000000 36.000000
v -64.002998 0.000000 36.000000
v -83.331947 0.000000 14.400008
v -77.502998 0.000000 14.400008
v -76.002998 0.000000 14.400008
v -74.502998 0.000000 14.400008
v -73.002998 0.000000 14.400008
v -71.502998 0.000000 14.400008
v -70.002998 0.000000 14.400008
v -68.502998 0.000000 14.400008
v -67.002998 0.000000 14.400008
v -65.502998 0.000000 14.400008
v -64.002998 0.000000 14.400008
v -83.331947 0.000000 -7.199997
v -77.502998 0.000000 -7.199997
v -76.002998 0.000000 -7.199997
v -74.502998 0.000000 -7.199997
v -73.002998 0.000000 -7.199997
v -71.502998 0.000000 -7.199997
v -70.002998 0.000000 -7.199997
v -68.502998 0.000000 -7.199997
v -67.002998 0.000000 -7.199997
v -65.502998 0.000000 -7.199997
v -64.002998 0.000000 -7.199997
v -83.331947 0.000000 -28.800003
v -77.502998 0.000000 -28.800003
v -76.002998 0.000000 -28.800003
v -74.502998 0.000000 -28.800003
v -73.002998 0.000000 -28.800003
v -71.502998 0.000000 -28.800003
v -70.002998 0.000000 -28.800003
v -68.502998 0.000000 -28.800003
v -67.002998 0.000000 -28.800003
v -65.502998 0.000000 -28.800003
v -64.002998 0.000000 -28.800003
v -83.331947 0.000000 -50.400002
v -77.502998 0.000000 -50.400002
v -76.002998 0.000000 -50.400002
v -74.502998 0.000000 -50.400002
v -73.002998 0.000000 -50.400002
v -71.502998 0.000000 -50.400002
v -70.002998 0.000000 -50.400002
v -68.502998 0.000000 -50.400002
v -67.002998 0.000000 -50.400002
v -65.502998 0.000000 -50.400002
v -64.002998 0.000000 -50.400002
v -83.331947 0.000000 -72.000000
v -77.502998 0.000000 -72.000000
v -76.002998 0.000000 -72.000000
v -74.502998 0.000000 -72.000000
v -73.002998 0.000000 -72.000000
v -71.502998 0.000000 -72.000000
v -70.002998 0.000000 -72.000000
v -68.502998 0.000000 -72.000000
v -67.002998 0.000000 -72.000000
v -65.502998 0.000000 -72.000000
v -64.002998 0.000000 -72.000000
v -83.331947 0.000000 -93.600006
v -77.502998 0.000000 -93.600006
v -76.002998 0.000000 -93.600006
v -74.502998 0.000000 -93.600006
v -73.002998 0.000000 -93.600006
v -71.502998 0.000000 -93.600006
v -70.002998 0.000000 -93.600006
v -68.502998 0.000000 -93.600006
v -67.002998 0.000000 -93.600006
v -65.502998 0.000000 -93.600006
v -64.002998 0.000000 -93.600006
v -83.331947 0.000000 -115.199989
v -77.502998 0.000000 -115.199989
v -76.002998 0.000000 -115.199989
v -74.502998 0.000000 -115.199989
v -73.002998 0.000000 -115.199989
v -71.502998 0.000000 -115.199989
v -70.002998 0.000000 -115.199989
v -68.502998 0.000000 -115.199989
v -67.002998 0.000000 -115.199989
v -65.502998 0.000000 -115.199989
v -64.002998 0.000000 -115.199989
v -83.331947 0.000000 -136.799988
v -77.502998 0.000000 -136.799988
v -76.002998 0.000000 -136.799988
v -74.502998 0.000000 -136.799988
v -73.002998 0.000000 -136.799988
v -71.502998 0.000000 -136.799988
v -70.002998 0.000000 -136.799988
v -68.502998 0.000000 -136.799988
v -67.002998 0.000000 -136.799988
v -65.502998 0.000000 -136.799988
v -64.002998 0.000000 -136.799988
v -64.002998 0.000000 -147.364151
v -65.502998 0.000000 -147.364151
v -67.002998 0.000000 -147.364151
v -68.502998 0.000000 -147.364151
v -70.002998 0.000000 -147.364151
v -71.502998 0.000000 -147.364151
v -73.002998 0.000000 -147.364151
v -74.502998 0.000000 -147.364151
v -76.002998 0.000000 -147.364151
v -77.502998 0.000000 -147.364151
v -83.331947 0.000000 -147.364151
v -83.332123 -1.183155 -180.000000
v -77.503174 -1.183155 -180.000000
v -76.003174 -1.183155 -180.000000
v -74.503174 -1.183155 -180.000000
v -73.003174 -1.183155 -180.000000
v -71.503174 -1.183155 -180.000000
v -70.003174 -1.183155 -180.000000
v -68.503174 -1.183155 -180.000000
v -67.003174 -1.183155 -180.000000
v -65.503174 -1.183155 -180.000000
v -64.003174 -1.183155 -180.000000
v -83.332123 -1.183155 -152.000000
v -77.503174 -1.183155 -152.000000
v -76.003174 -1.183155 -152.000000
v -74.503174 -1.183155 -152.000000
v -73.003174 -1.183155 -152.000000
v -71.503174 -1.183155 -152.000000
v -70.003174 -1.183155 -152.000000
v -68.503174 -1.183155 -152.000000
v -67.003174 -1.183155 -152.000000
v -65.503174 -1.183155 -152.000000
v -64.003174 -1.183155 -152.000000
vt 0.000210 0.001992
vt 0.031872 0.001992
vt 0.031872 0.119321
vt 0.000210 0.119321
vt 0.040020 0.001992
vt 0.040020 0.119321
vt 0.031872 0.236650
vt 0.000210 0.236650
vt 0.048168 0.001992
vt 0.048168 0.119321
vt 0.040020 0.236650
vt 0.031872 0.353979
vt 0.000210 0.353979
vt 0.056316 0.001992
vt 0.056316 0.119321
vt 0.048168 0.236650
vt 0.040020 0.353979
vt 0.031872 0.471308
vt 0.000210 0.471308
vt 0.064464 0.001992
vt 0.064464 0.119321
vt 0.056316 0.236650
vt 0.048168 0.353979
vt 0.040020 0.471308
vt 0.031872 0.588637
vt 0.000210 0.588637
vt 0.072612 0.001992
vt 0.072612 0.119321
vt 0.064464 0.236650
vt 0.056316 0.353979
vt 0.048168 0.471308
vt 0.040020 0.588637
vt 0.031872 0.705967
vt 0.000210 0.705967
vt 0.080759 0.001992
vt 0.080759 0.119321
vt 0.072612 0.236650
vt 0.064464 0.353979
vt 0.056316 0.471308
vt 0.048168 0.588637
vt 0.040020 0.705967
vt 0.031872 0.823296
vt 0.000210 0.823296
vt 0.088907 0.001992
vt 0.088907 0.119321
vt 0.080759 0.236650
vt 0.072612 0.353979
vt 0.064464 0.471308
vt 0.056316 0.588637
vt 0.048168 0.705967
vt 0.040020 0.823296
vt 0.031872 0.940624
vt 0.000210 0.940624
vt 0.097055 0.001992
vt 0.097055 0.119321
vt 0.088907 0.236650
vt 0.080759 0.353979
vt 0.072612 0.471308
vt 0.064464 0.588637
vt 0.056316 0.705967
vt 0.048168 0.823296
vt 0.040020 0.940624
vt 0.031872 0.998008
vt 0.000210 0.998008
vt 0.105203 0.001992
vt 0.105203 0.119321
vt 0.097055 0.236650
vt 0.088907 0.353979
vt 0.080759 0.471308
vt 0.072612 0.588637
vt 0.064464 0.705967
vt 0.056316 0.823296
vt 0.048168 0.940624
vt 0.040020 0.998008
vt 0.105203 0.236650
vt 0.097055 0.353979
vt 0.088907 0.471308
vt 0.080759 0.588637
vt 0.072612 0.705967
vt 0.064464 0.823296
vt 0.056316 0.940624
vt 0.048168 0.998008
vt 0.105203 0.353979
vt 0.097055 0.471308
vt 0.088907 0.588637
vt 0.080759 0.705967
vt 0.072612 0.823296
vt 0.064464 0.940624
vt 0.056316 0.998008
vt 0.105203 0.471308
vt 0.097055 0.588637
vt 0.088907 0.705967
vt 0.080759 0.823296
vt 0.072612 0.940624
vt 0.064464 0.998008
vt 0.105203 0.588637
vt 0.097055 0.705967
vt 0.088907 0.823296
vt 0.080759 0.940624
vt 0.072612 0.998008
vt 0.105203 0.705967
vt 0.097055 0.823296
vt 0.088907 0.940624
vt 0.080759 0.998008
vt 0.105203 0.823296
vt 0.097055 0.940624
vt 0.088907 0.998008
vt 0.105203 0.940624
vt 0.097055 0.998008
vt 0.105203 0.998008
vt 0.000000 0.900000
vt 0.100000 0.900000
vt 0.100000 1.000000
vt 0.000000 1.000000
vt 0.200000 0.900000
vt 0.200000 1.000000
vt 0.300000 0.900000
vt 0.300000 1.000000
vt 0.400000 0.900000
vt 0.400000 1.000000
vt 0.500000 0.900000
vt 0.500000 1.000000
vt 0.600000 0.900000
vt 0.600000 1.000000
vt 0.700000 0.900000
vt 0.700000 1.000000
vt 0.800000 0.900000
vt 0.800000 1.000000
vt 0.900000 0.900000
vt 0.900000 1.000000
vt 1.000000 0.900000
vt 1.000000 1.000000
vn 0.000000 1.000000 0.000000
vn 0.000000 1.000000 0.000000
vn 0.000000 1.000000 0.000000
vn 0.000000 1.000000 0.000000
vn 0.000000 1.000000 0.000000
vn 0.000000 1.000000 0.000000
vn 0.000000 1.000000 0.000000
vn 0.000000 1.000000 0.000000
vn 0.000000 1.000000 0.000000
vn 0.000000 1.000000 0.000000
vn 0.000000 1.000000 0.000000
vn 0.000000 1.000000 0.000000
vn 0.000000 1.000000 0.000000
vn 0.000000 1.000000 0.000000
vn 0.000000 1.000000 0.000000
vn 0.000000 1.000000 0.000000
vn 0.000000 1.000000 0.000000
vn 0.000000 1.000000 0.000000
vn 0.000000 1.000000 0.000000
vn 0.000000 1.000000 0.000000
vn 0.000000 1.000000 0.000000
vn 0.000000 1.000000 0.000000
vn 0.000000 1.000000 0.000000
vn 0.000000 1.000000 0.000000
vn 0.000000 1.000000 0.000000
vn 0.000000 1.000000 0.000000
vn 0.000000 1.000000 0.000000
vn 0.000000 1.000000 0.000000
vn 0.000000 1.000000 0.000000
vn 0.000000 1.000000 0.000000
vn 0.000000 1.000000 0.000000
vn 0.000000 1.000000 0.000000
vn 0.000000 1.000000 0.000000
vn 0.000000 1.000000 0.000000
vn 0.000000 1.000000 0.000000
vn 0.000000 1.000000 0.000000
vn 0.000000 1.000000 0.000000
vn 0.000000 1.000000 0.000000
vn 0.000000 1.000000 0.000000
vn 0.000000 1.000000 0.000000
vn 0.000000 1.000000 0.000000
vn 0.000000 1.000000 0.000000
vn 0.000000 1.000000 0.000000
vn 0.000000 1.000000 0.000000
vn 0.000000 1.000000 0.000000
vn 0.000000 1.000000 0.000000
vn 0.000000 1.000000 0.000000
vn 0.000000 1.000000 0.000000
vn 0.000000 1.000000 0.000000
vn 0.000000 1.000000 0.000000
vn 0.000000 1.000000 0.000000
vn 0.000000 1.000000 0.000000
vn 0.000000 1.000000 0.000000
vn 0.000000 1.000000 0.000000
vn 0.000000 1.000000 0.000000
vn 0.000000 1.000000 0.000000
vn 0.000000 1.000000 0.000000
vn 0.000000 1.000000 0.000000
vn 0.000000 1.000000 0.000000
vn 0.000000 1.000000 0.000000
vn 0.000000 1.000000 0.000000
vn 0.000000 1.000000 0.000000
vn 0.000000 1.000000 0.000000
vn 0.000000 1.000000 0.000000
vn 0.000000 1.000000 0.000000
vn 0.000000 1.000000 0.000000
vn 0.000000 1.000000 0.000000
vn 0.000000 1.000000 0.000000
vn 0.000000 1.000000 0.000000
vn 0.000000 1.000000 0.000000
vn 0.000000 1.000000 0.000000
vn 0.000000 1.000000 0.000000
vn 0.000000 1.000000 0.000000
vn 0.000000 1.000000 0.000000
vn 0.000000 1.000000 0.000000
vn 0.000000 1.000000 0.000000
vn 0.000000 1.000000 0.000000
vn 0.000000 1.000000 0.000000
vn 0.000000 1.000000 0.000000
vn 0.000000 1.000000 0.000000
vn 0.000000 1.000000 0.000000
vn 0.000000 1.000000 0.000000
vn 0.000000 1.000000 0.000000
vn 0.000000 1.000000 0.000000
vn 0.000000 1.000000 0.000000
vn 0.000000 1.000000 0.000000
vn 0.000000 1.000000 0.000000
vn 0.000000 1.000000 0.000000
vn 0.000000 1.000000 0.000000
vn 0.000000 1.000000 0.000000
vn 0.000000 1.000000 0.000000
vn 0.000000 1.000000 0.000000
vn 0.000000 1.000000 0.000000
vn 0.000000 1.000000 0.000000
vn 0.000000 1.000000 0.000000
vn 0.000000 1.000000 0.000000
vn 0.000000 1.000000 0.000000
vn 0.000000 1.000000 0.000000
vn 0.000000 1.000000 0.000000
vn 0.000000 1.000000 0.000000
vn 0.000000 1.000000 0.000000
vn 0.000000 1.000000 0.000000
vn 0.000000 1.000000 0.000000
vn 0.000000 1.000000 0.000000
vn 0.000000 1.000000 0.000000
vn 0.000000 1.000000 0.000000
vn 0.000000 1.000000 0.000000
vn 0.000000 1.000000 0.000000
vn 0.000000 1.000000 0.000000
vn 0.000000 1.000000 0.000000
vn 0.000000 1.000000 0.000000
vn 0.000000 1.000000 0.000000
vn 0.000000 1.000000 0.000000
vn 0.000000 1.000000 0.000000
vn 0.000000 1.000000 0.000000
vn 0.000000 1.000000 0.000000
vn 0.000000 1.000000 0.000000
vn 0.000000 1.000000 0.000000
vn 0.000000 1.000000 0.000000
vn 0.000000 1.000000 0.000000
vn 0.000000 1.000000 0.000000
vn 0.000000 1.000000 0.000000
vn 0.000000 1.000000 0.000000
vn 0.000000 1.000000 0.000000
vn 0.000000 1.000000 0.000000
vn 0.000000 1.000000 0.000000
vn 0.000000 1.000000 0.000000
vn 0.000000 1.000000 0.000000
vn 0.000000 1.000000 0.000000
vn 0.000000 1.000000 0.000000
vn 0.000000 1.000000 0.000000
vn 0.000000 1.000000 0.000000
vn 0.000000 1.000000 0.000000
vn 0.000000 1.000000 0.000000
vn 0.000000 1.000000 0.000000
vn 0.000000 1.000000 0.000000
vn 0.000000 1.000000 0.000000
vn 0.000000 1.000000 0.000000
vn 0.000000 1.000000 0.000000
vn 0.000000 1.000000 0.000000
vn 0.000000 1.000000 0.000000
vn 0.000000 1.000000 0.000000
vn 0.000000 1.000000 0.000000
vn 0.000000 1.000000 0.000000
vn 0.000000 1.000000 0.000000
vn 0.000000 1.000000 0.000000
vn 0.000000 1.000000 0.000000
vn 0.000000 1.000000 0.000000
vn 0.000000 1.000000 0.000000
vn 0.000000 1.000000 0.000000
vn 0.000000 1.000000 0.000000
vn 0.000000 1.000000 0.000000
vn 0.000000 1.000000 0.000000
vn 0.000000 1.000000 0.000000
vn 0.000000 1.000000 0.000000
vn 0.000000 1.000000 0.000000
vn 0.000000 1.000000 0.000000
vn 0.000000 1.000000 0.000000
vn 0.000000 1.000000 0.000000
vn 0.000000 1.000000 0.000000
vn 0.000000 1.000000 0.000000
vn 0.000000 1.000000 0.000000
vn 0.000000 1.000000 0.000000
vn 0.000000 1.000000 0.000000
vn 0.000000 1.000000 0.000000
vn 0.000000 1.000000 0.000000
vn 0.000000 1.000000 0.000000
vn 0.000000 1.000000 0.000000
vn 0.000000 1.000000 0.000000
vn 0.000000 1.000000 0.000000
vn 0.000000 1.000000 0.000000
vn 0.000000 1.000000 0.000000
vn 0.000000 1.000000 0.000000
vn 0.000000 1.000000 0.000000
vn 0.000000 1.000000 0.000000
vn 0.000000 1.000000 0.000000
vn 0.000000 1.000000 0.000000
vn 0.000000 1.000000 0.000000
vn 0.000000 1.000000 0.000000
vn 0.000000 1.000000 0.000000
vn 0.000000 1.000000 0.000000
vn 0.000000 1.000000 0.000000
vn 0.000000 1.000000 0.000000
vn 0.000000 1.000000 0.000000
vn 0.000000 1.000000 0.000000
vn 0.000000 1.000000 0.000000
vn 0.000000 1.000000 0.000000
vn 0.000000 1.000000 0.000000
vn 0.000000 1.000000 0.000000
vn 0.000000 1.000000 0.000000
vn 0.000000 1.000000 0.000000
vn 0.000000 1.000000 0.000000
vn 0.000000 1.000000 0.000000
vn 0.000000 1.000000 0.000000
vn 0.000000 1.000000 0.000000
vn 0.000000 1.000000 0.000000
vn 0.000000 1.000000 0.000000
vn 0.000000 1.000000 0.000000
vn 0.000000 1.000000 0.000000
vn 0.000000 1.000000 0.000000
vn 0.000000 1.000000 0.000000
vn 0.000000 1.000000 0.000000
vn 0.000000 1.000000 0.000000
vn 0.000000 1.000000 0.000000
vn 0.000000 1.000000 0.000000
vn 0.000000 1.000000 0.000000
vn 0.000000 1.000000 0.000000
vn 0.000000 1.000000 0.000000
vn 0.000000 1.000000 0.000000
vn 0.000000 1.000000 0.000000
vn 0.000000 1.000000 0.000000
vn 0.000000 1.000000 0.000000
vn 0.000000 1.000000 0.000000
vn 0.000000 1.000000 0.000000
vn 0.000000 1.000000 0.000000
vn 0.000000 1.000000 0.000000
vn 0.000000 1.000000 0.000000
vn 0.000000 1.000000 0.000000
vn 0.000000 1.000000 0.000000
vn 0.000000 1.000000 0.000000
vn 0.000000 1.000000 0.000000
vn 0.000000 1.000000 0.000000
vn 0.000000 1.000000 0.000000
vn 0.000000 1.000000 0.000000
vn 0.000000 1.000000 0.000000
vn 0.000000 1.000000 0.000000
vn 0.000000 1.000000 0.000000
vn 0.000000 1.000000 0.000000
vn 0.000000 1.000000 0.000000
vn 0.000000 1.000000 0.000000
vn 0.000000 1.000000 0.000000
vn 0.000000 1.000000 0.000000
vn 0.000000 1.000000 0.000000
vn 0.000000 1.000000 0.000000
vn 0.000000 1.000000 0.000000
vn 0.000000 1.000000 0.000000
vn 0.000000 1.000000 0.000000
vn 0.000000 1.000000 0.000000
vn 0.000000 1.000000 0.000000
vn 0.000000 1.000000 0.000000
vn 0.000000 1.000000 0.000000
vn 0.000000 1.000000 0.000000
vn 0.000000 1.000000 0.000000
vn 0.000000 1.000000 0.000000
vn 0.000000 1.000000 0.000000
vn 0.000000 1.000000 0.000000
vn 0.000000 1.000000 0.000000
vn 0.000000 1.000000 0.000000
vn 0.000000 1.000000 0.000000
vn 0.000000 1.000000 0.000000
vn 0.000000 1.000000 0.000000
vn 0.000000 1.000000 0.000000
vn 0.000000 1.000000 0.000000
vn 0.000000 1.000000 0.000000
vn 0.000000 1.000000 0.000000
vn 0.000000 1.000000 0.000000
vn 0.000000 1.000000 0.000000
vn 0.000000 1.000000 0.000000
vn 0.000000 1.000000 0.000000
vn 0.000000 1.000000 0.000000
vn 0.000000 1.000000 0.000000
vn 0.000000 1.000000 0.000000
vn 0.000000 1.000000 0.000000
vn 0.000000 1.000000 0.000000
vn 0.000000 1.000000 0.000000
vn 0.000000 1.000000 0.000000
vn 0.000000 1.000000 0.000000
vn 0.000000 1.000000 0.000000
vn 0.000000 1.000000 0.000000
vn 0.000000 1.000000 0.000000
vn 0.000000 1.000000 0.000000
vn 0.000000 1.000000 0.000000
vn 0.000000 1.000000 0.000000
vn 0.000000 1.000000 0.000000
vn 0.000000 1.000000 0.000000
vn 0.000000 1.000000 0.000000
vn 0.000000 1.000000 0.000000
vn 0.000000 1.000000 0.000000
vn 0.000000 1.000000 0.000000
vn 0.000000 1.000000 0.000000
vn 0.000000 1.000000 0.000000
vn 0.000000 1.000000 0.000000
vn 0.000000 1.000000 0.000000
vn 0.000000 1.000000 0.000000
vn 0.000000 1.000000 0.000000
vn 0.000000 1.000000 0.000000
vn 0.000000 1.000000 0.000000
vn 0.000000 1.000000 0.000000
vn 0.000000 1.000000 0.000000
vn 0.000000 1.000000 0.000000
vn 0.000000 1.000000 0.000000
vn 0.000000 1.000000 0.000000
vn 0.000000 1.000000 0.000000
vn 0.000000 1.000000 0.000000
vn 0.000000 1.000000 0.000000
vn 0.000000 1.000000 0.000000
vn 0.000000 1.000000 0.000000
vn 0.000000 1.000000 0.000000
vn 0.000000 1.000000 0.000000
vn 0.000000 1.000000 0.000000
vn 0.000000 1.000000 0.000000
vn 0.000000 1.000000 0.000000
vn 0.000000 1.000000 0.000000
vn 0.000000 1.000000 0.000000
vn 0.000000 1.000000 0.000000
vn 0.000000 1.000000 0.000000
vn 0.000000 1.000000 0.000000
vn 0.000000 1.000000 0.000000
vn 0.000000 1.000000 0.000000
vn 0.000000 1.000000 0.000000
vn 0.000000 1.000000 0.000000
vn 0.000000 1.000000 0.000000
vn 0.000000 1.000000 0.000000
vn 0.000000 1.000000 0.000000
vn 0.000000 1.000000 0.000000
vn 0.000000 1.000000 0.000000
vn 0.000000 1.000000 0.000000
vn 0.000000 1.000000 0.000000
vn 0.000000 1.000000 0.000000
vn 0.000000 1.000000 0.000000
vn 0.000000 1.000000 0.000000
vn 0.000000 1.000000 0.000000
vn 0.000000 1.000000 0.000000
vn 0.000000 1.000000 0.000000
vn 0.000000 1.000000 0.000000
vn 0.000000 1.000000 0.000000
vn 0.000000 1.000000 0.000000
vn 0.000000 1.000000 0.000000
vn 0.000000 1.000000 0.000000
vn 0.000000 1.000000 0.000000
vn 0.000000 1.000000 0.000000
vn 0.000000 1.000000 0.000000
vn 0.000000 1.000000 0.000000
vn 0.000000 1.000000 0.000000
vn 0.000000 1.000000 0.000000
vn 0.000000 1.000000 0.000000
vn 0.000000 1.000000 0.000000
vn 0.000000 1.000000 0.000000
vn 0.000000 1.000000 0.000000
vn 0.000000 1.000000 0.000000
vn 0.000000 1.000000 0.000000
vn 0.000000 1.000000 0.000000
vn 0.000000 1.000000 0.000000
vn 0.000000 1.000000 0.000000
vn 0.000000 1.000000 0.000000
vn 0.000000 1.000000 0.000000
vn 0.000000 1.000000 0.000000
vn 0.000000 1.000000 0.000000
vn 0.000000 1.000000 0.000000
vn 0.000000 1.000000 0.000000
vn 0.000000 1.000000 0.000000
vn 0.000000 1.000000 0.000000
vn 0.000000 1.000000 0.000000
vn 0.000000 1.000000 0.000000
vn 0.000000 1.000000 0.000000
vn 0.000000 1.000000 0.000000
vn 0.000000 1.000000 0.000000
vn 0.000000 1.000000 0.000000
vn 0.000000 1.000000 0.000000
vn 0.000000 1.000000 0.000000
vn 0.000000 1.000000 0.000000
vn 0.000000 1.000000 0.000000
vn 0.000000 1.000000 0.000000
vn 0.000000 1.000000 0.000000
vn 0.000000 1.000000 0.000000
vn 0.000000 1.000000 0.000000
vn 0.000000 1.000000 0.000000
vn 0.000000 1.000000 0.000000
vn 0.000000 1.000000 0.000000
vn 0.000000 1.000000 0.000000
vn 0.000000 1.000000 0.000000
vn 0.000000 1.000000 0.000000
vn 0.000000 1.000000 0.000000
vn 0.000000 1.000000 0.000000
vn 0.000000 1.000000 0.000000
vn 0.000000 1.000000 0.000000
vn 0.000000 1.000000 0.000000
vn 0.000000 1.000000 0.000000
vn 0.000000 1.000000 0.000000
vn 0.000000 1.000000 0.000000
vn 0.000000 1.000000 0.000000
vn 0.000000 1.000000 0.000000
vn 0.000000 1.000000 0.000000
vn 0.000000 1.000000 0.000000
vn 0.000000 1.000000 0.000000
vn 0.000000 1.000000 0.000000
vn 0.000000 1.000000 0.000000
vn 0.000000 1.000000 0.000000
vn 0.000000 1.000000 0.000000
vn 0.000000 1.000000 0.000000
vn 0.000000 1.000000 0.000000
vn 0.000000 1.000000 0.000000
vn 0.000000 1.000000 0.000000
vn 0.000000 1.000000 0.000000
vn 0.000000 1.000000 0.000000
vn 0.000000 1.000000 0.000000
vn 0.000000 1.000000 0.000000
vn 0.000000 1.000000 0.000000
vn 0.000000 1.000000 0.000000
vn 0.000000 1.000000 0.000000
s off
g mine_no_text:pPlane2
usemtl initialShadingGroup
f 1/1/1 2/2/2 13/3/3 12/4/4
f 2/2/5 3/5/6 14/6/7 13/3/8
f 3/5/9 4/9/10 15/10/11 14/6/12
f 4/9/13 5/14/14 16/15/15 15/10/16
f 5/14/17 6/20/18 17/21/19 16/15/20
f 6/20/21 7/27/22 18/28/23 17/21/24
f 7/27/25 8/35/26 19/36/27 18/28/28
f 8/35/29 9/44/30 20/45/31 19/36/32
f 9/44/33 10/54/34 21/55/35 20/45/36
f 10/54/37 11/65/38 22/66/39 21/55/40
f 12/4/41 13/3/42 24/7/43 23/8/44
f 13/3/45 14/6/46 25/11/47 24/7/48
f 14/6/49 15/10/50 26/16/51 25/11/52
f 15/10/53 16/15/54 27/22/55 26/16/56
f 16/15/57 17/21/58 28/29/59 27/22/60
f 17/21/61 18/28/62 29/37/63 28/29/64
f 18/28/65 19/36/66 30/46/67 29/37/68
f 19/36/69 20/45/70 31/56/71 30/46/72
f 20/45/73 21/55/74 32/67/75 31/56/76
f 21/55/77 22/66/78 33/75/79 32/67/80
f 23/8/81 24/7/82 35/12/83 34/13/84
f 24/7/85 25/11/86 36/17/87 35/12/88
f 25/11/89 26/16/90 37/23/91 36/17/92
f 26/16/93 27/22/94 38/30/95 37/23/96
f 27/22/97 28/29/98 39/38/99 38/30/100
f 28/29/101 29/37/102 40/47/103 39/38/104
f 29/37/105 30/46/106 41/57/107 40/47/108
f 30/46/109 31/56/110 42/68/111 41/57/112
f 31/56/113 32/67/114 43/76/115 42/68/116
f 32/67/117 33/75/118 44/83/119 43/76/120
f 34/13/121 35/12/122 46/18/123 45/19/124
f 35/12/125 36/17/126 47/24/127 46/18/128
f 36/17/129 37/23/130 48/31/131 47/24/132
f 37/23/133 38/30/134 49/39/135 48/31/136
f 38/30/137 39/38/138 50/48/139 49/39/140
f 39/38/141 40/47/142 51/58/143 50/48/144
f 40/47/145 41/57/146 52/69/147 51/58/148
f 41/57/149 42/68/150 53/77/151 52/69/152
f 42/68/153 43/76/154 54/84/155 53/77/156
f 43/76/157 44/83/158 55/90/159 54/84/160
f 45/19/161 46/18/162 57/25/163 56/26/164
f 46/18/165 47/24/166 58/32/167 57/25/168
f 47/24/169 48/31/170 59/40/171 58/32/172
f 48/31/173 49/39/174 60/49/175 59/40/176
f 49/39/177 50/48/178 61/59/179 60/49/180
f 50/48/181 51/58/182 62/70/183 61/59/184
f 51/58/185 52/69/186 63/78/187 62/70/188
f 52/69/189 53/77/190 64/85/191 63/78/192
f 53/77/193 54/84/194 65/91/195 64/85/196
f 54/84/197 55/90/198 66/96/199 65/91/200
f 56/26/201 57/25/202 68/33/203 67/34/204
f 57/25/205 58/32/206 69/41/207 68/33/208
f 58/32/209 59/40/210 70/50/211 69/41/212
f 59/40/213 60/49/214 71/60/215 70/50/216
f 60/49/217 61/59/218 72/71/219 71/60/220
f 61/59/221 62/70/222 73/79/223 72/71/224
f 62/70/225 63/78/226 74/86/227 73/79/228
f 63/78/229 64/85/230 75/92/231 74/86/232
f 64/85/233 65/91/234 76/97/235 75/92/236
f 65/91/237 66/96/238 77/101/239 76/97/240
f 67/34/241 68/33/242 79/42/243 78/43/244
f 68/33/245 69/41/246 80/51/247 79/42/248
f 69/41/249 70/50/250 81/61/251 80/51/252
f 70/50/253 71/60/254 82/72/255 81/61/256
f 71/60/257 72/71/258 83/80/259 82/72/260
f 72/71/261 73/79/262 84/87/263 83/80/264
f 73/79/265 74/86/266 85/93/267 84/87/268
f 74/86/269 75/92/270 86/98/271 85/93/272
f 75/92/273 76/97/274 87/102/275 86/98/276
f 76/97/277 77/101/278 88/105/279 87/102/280
f 78/43/281 79/42/282 90/52/283 89/53/284
f 79/42/285 80/51/286 91/62/287 90/52/288
f 80/51/289 81/61/290 92/73/291 91/62/292
f 81/61/293 82/72/294 93/81/295 92/73/296
f 82/72/297 83/80/298 94/88/299 93/81/300
f 83/80/301 84/87/302 95/94/303 94/88/304
f 84/87/305 85/93/306 96/99/307 95/94/308
f 85/93/309 86/98/310 97/103/311 96/99/312
f 86/98/313 87/102/314 98/106/315 97/103/316
f 87/102/317 88/105/318 99/108/319 98/106/320
f 89/53/321 90/52/322 109/63/323 110/64/324
f 90/52/325 91/62/326 108/74/327 109/63/328
f 91/62/329 92/73/330 107/82/331 108/74/332
f 92/73/333 93/81/334 106/89/335 107/82/336
f 93/81/337 94/88/338 105/95/339 106/89/340
f 94/88/341 95/94/342 104/100/343 105/95/344
f 95/94/345 96/99/346 103/104/347 104/100/348
f 96/99/349 97/103/350 102/107/351 103/104/352
f 97/103/353 98/106/354 101/109/355 102/107/356
f 98/106/357 99/108/358 100/110/359 101/109/360
f 122/111/361 123/112/362 112/113/363 111/114/364
f 123/112/365 124/115/366 113/116/367 112/113/368
f 124/115/369 125/117/370 114/118/371 113/116/372
f 125/117/373 126/119/374 115/120/375 114/118/376
f 126/119/377 127/121/378 116/122/379 115/120/380
f 127/121/381 128/123/382 117/124/383 116/122/384
f 128/123/385 129/125/386 118/126/387 117/124/388
f 129/125/389 130/127/390 119/128/391 118/126/392
f 130/127/393 131/129/394 120/130/395 119/128/396
f 131/129/397 132/131/398 121/132/399 120/130/400
