# File produced by Open Asset Import Library (http://www.assimp.sf.net)
# (assimp v3.1.206520482)

mtllib wall_1_LP_UV.mtl

# 72 vertex positions
v 0.648872 4 1.00015
v -0.5 4 1.00015
v -0.5 4 2.00005
v 0.648872 4 2.00005
v -0.5 4 2.99995
v 0.973822 4 2.99995
v -0.5 4 3.99985
v 0.973822 4 3.99985
v -0.5 4 0
v 0.5 4 0
v -0.5 -0.5 1.00015
v -0.5 -0.5 0
v 0.5 -0.5 0
v 0.648872 -0.5 1.00015
v -0.5 4 5
v 0.5 4 5
v -0.5 -0.5 5
v -0.5 -0.5 3.99985
v 0.973822 -0.5 3.99985
v 0.5 -0.5 5
v -0.5 -0.5 2.99995
v 0.973822 -0.5 2.99995
v 0.648872 -0.5 2.00005
v -0.5 -0.5 2.00005
v 0.5 3.54982 5
v -0.5 3.54982 5
v -0.5 2.34994 5
v 0.5 2.34994 5
v -0.5 1.15006 5
v 0.5 1.15006 5
v -0.5 -0.0498199 5
v 0.5 -0.0498199 5
v -0.5 3.54982 0
v 0.5 3.54982 0
v 0.787964 3.54982 1.00015
v -0.5 3.54982 1.00015
v 1.11291 3.54982 3.99985
v -0.5 3.54982 3.99985
v 1.11291 3.54982 2.99995
v 0.787964 3.54982 2.00005
v -0.5 3.54982 2.99995
v -0.5 3.54982 2.00005
v 0.836433 -0.0498199 3.99985
v 0.973822 -0.0498199 2.99995
v 0.648872 -0.0498199 2.00005
v 0.648872 -0.0498199 1.00015
v 0.5 -0.0498199 0
v -0.5 -0.0498199 0
v -0.5 -0.0498199 1.00015
v -0.5 -0.0498199 2.00005
v -0.5 -0.0498199 2.99995
v -0.5 -0.0498199 3.99985
v 0.836433 1.15006 3.99985
v 1.11291 2.34994 3.99985
v 0.973822 1.15006 2.99995
v 1.11291 2.34994 2.99995
v 0.827615 1.15006 2.00005
v 0.966707 2.34994 2.00005
v 0.827616 1.15006 1.00015
v 0.966707 2.34994 1.00015
v 0.5 1.15006 0
v 0.5 2.34994 0
v -0.5 1.15006 0
v -0.5 2.34994 0
v -0.5 1.15006 1.00015
v -0.5 2.34994 1.00015
v -0.5 1.15006 2.00005
v -0.5 2.34994 2.00005
v -0.5 1.15006 2.99995
v -0.5 2.34994 2.99995
v -0.5 1.15006 3.99985
v -0.5 2.34994 3.99985

# 102 UV coordinates
vt 0.625 0.449993 0
vt 0.375 0.449992 0
vt 0.375 0.399998 0
vt 0.625 0.399998 0
vt 0.375 0.350002 0
vt 0.625 0.350002 0
vt 0.375 0.300008 0
vt 0.625 0.300007 0
vt 0.375 0.5 0
vt 0.625 0.5 0
vt 0.375 0.800008 0
vt 0.375 0.75 0
vt 0.625 0.75 0
vt 0.625 0.800007 0
vt 0.375 0.25 0
vt 0.625 0.25 0
vt 0.375 1 0
vt 0.375 0.949992 0
vt 0.625 0.949993 0
vt 0.625 1 0
vt 0.375 0.899997 0
vt 0.708333 0.316664 0
vt 0.666667 0.558336 0
vt 0.375 0.850003 0
vt 0.625 0.22499 0
vt 0.375 0.22499 0
vt 0.436359 0.164262 0
vt 0.559104 0.164243 0
vt 0.436696 0.097571 0
vt 0.56003 0.096735 0
vt 0.375 0.02501 0
vt 0.625 0.02501 0
vt 0.375 0.52501 0
vt 0.625 0.52501 0
vt 0.875 0.25 0
vt 0.824992 0.25 0
vt 0.824992 0.22499 0
vt 0.875 0.22499 0
vt 0.125 0.25 0
vt 0.125 0.22499 0
vt 0.175007 0.22499 0
vt 0.175007 0.25 0
vt 0.675008 0.22499 0
vt 0.675008 0.25 0
vt 0.324993 0.25 0
vt 0.324993 0.22499 0
vt 0.650006 0.299987 0
vt 0.641669 0.333333 0
vt 0.733331 0.291667 0
vt 0.737499 0.262488 0
vt 0.274998 0.25 0
vt 0.274998 0.22499 0
vt 0.225002 0.25 0
vt 0.225002 0.22499 0
vt 0.375 0 0
vt 0.625 0 0
vt 0.675007 0 0
vt 0.675007 0.02501 0
vt 0.725002 0 0
vt 0.716666 0.033347 0
vt 0.774997 0 0
vt 0.770829 0.029178 0
vt 0.824992 0 0
vt 0.824992 0.02501 0
vt 0.875 0 0
vt 0.875 0.02501 0
vt 0.375 0.72499 0
vt 0.625 0.72499 0
vt 0.125 0.02501 0
vt 0.125 0 0
vt 0.175007 0 0
vt 0.175007 0.02501 0
vt 0.225002 0 0
vt 0.225002 0.02501 0
vt 0.274998 0 0
vt 0.274998 0.02501 0
vt 0.324993 0 0
vt 0.324993 0.02501 0
vt 0.644667 0.099226 0
vt 0.640841 0.169694 0
vt 0.70174 0.104219 0
vt 0.686898 0.185717 0
vt 0.76169 0.10151 0
vt 0.751839 0.17802 0
vt 0.819211 0.095959 0
vt 0.816799 0.165031 0
vt 0.875 0.09167 0
vt 0.875 0.15833 0
vt 0.375 0.65833 0
vt 0.791667 0.324997 0
vt 0.708333 0.425003 0
vt 0.375 0.59167 0
vt 0.243313 0.22461 0
vt 0.291667 0.425003 0
vt 0.208333 0.324997 0
vt 0.221512 0.247671 0
vt 0.257552 0.14688 0
vt 0.251844 0.202135 0
vt 0.29836 0.115409 0
vt 0.296852 0.1791 0
vt 0.35644 0.102485 0
vt 0.355988 0.168426 0

# 41 vertex normals
vn 0 1 0
vn 0 -1 0
vn 0 0 1
vn 0 0 -1
vn 0.966034 0.149237 -0.210967
vn 0.968794 0.223465 -0.107242
vn 0.976326 0.140327 -0.16461
vn 0.944581 0.090973 -0.315422
vn -1 0 0
vn 0.87071 0.134511 0.473045
vn 0.859253 0.036215 0.510268
vn 0.957807 0.059359 0.281216
vn 0.939908 0.214978 0.265251
vn 0.986023 0.108261 -0.126639
vn 0.943489 0.291509 -0.157641
vn 0.944782 0.291908 -0.14892
vn 0.978178 0.163984 -0.127582
vn 0.94162 0.039201 0.334389
vn 0.917715 0.140038 0.371736
vn 0.963971 0.147097 0.221635
vn 0.971827 0.040957 0.232109
vn 0.989062 0.075463 -0.126739
vn 0.997493 -0.00625 -0.070487
vn 0.987054 0 -0.160388
vn 0.988589 -0.080388 -0.127398
vn 0.997241 0 -0.074229
vn 0.991038 -0.080479 -0.106619
vn 0.989103 0 -0.147228
vn 0.976525 -0.052891 -0.208809
vn 0.966015 -0.069644 0.248927
vn 0.925394 -0.053308 0.37524
vn 0.877415 -0.050544 0.477061
vn 0.959322 -0.068373 0.27391
vn 0.994919 -0.090702 -0.043697
vn 0.99555 -0.053249 -0.077752
vn 0.989129 -0.112449 -0.094755
vn 0.995416 -0.00213 -0.095622
vn 0.982787 -0.097566 -0.156881
vn 0.982324 0.012102 -0.186796
vn 0.951178 -0.062989 -0.302146
vn 0.932511 0.007704 -0.361059

# Mesh 'g pCube1_pCube1' with 140 faces
g g pCube1_pCube1
usemtl initialShadingGroup
f 1/1/1 2/2/1 3/3/1
f 3/3/1 4/4/1 1/1/1
f 4/4/1 3/3/1 5/5/1
f 5/5/1 6/6/1 4/4/1
f 6/6/1 5/5/1 7/7/1
f 7/7/1 8/8/1 6/6/1
f 9/9/1 2/2/1 1/1/1
f 1/1/1 10/10/1 9/9/1
f 11/11/2 12/12/2 13/13/2
f 13/13/2 14/14/2 11/11/2
f 7/7/1 15/15/1 16/16/1
f 16/16/1 8/8/1 7/7/1
f 17/17/2 18/18/2 19/19/2
f 19/19/2 20/20/2 17/17/2
f 21/21/2 22/22/2 19/19/2
f 19/19/2 18/18/2 21/21/2
f 11/11/2 14/14/2 23/23/2
f 23/23/2 24/24/2 11/11/2
f 24/24/2 23/23/2 22/22/2
f 22/22/2 21/21/2 24/24/2
f 25/25/3 26/26/3 27/27/3
f 27/27/3 28/28/3 25/25/3
f 28/28/3 27/27/3 29/29/3
f 29/29/3 30/30/3 28/28/3
f 30/30/3 29/29/3 31/31/3
f 31/31/3 32/32/3 30/30/3
f 15/15/3 26/26/3 25/25/3
f 25/25/3 16/16/3 15/15/3
f 33/33/4 9/9/4 10/10/4
f 10/10/4 34/34/4 33/33/4
f 10/35/5 1/36/6 35/37/7
f 35/37/7 34/38/8 10/35/5
f 9/39/9 33/40/9 36/41/9
f 36/41/9 2/42/9 9/39/9
f 16/16/10 25/25/11 37/43/12
f 37/43/12 8/44/13 16/16/10
f 15/15/9 7/45/9 38/46/9
f 38/46/9 26/26/9 15/15/9
f 39/47/14 6/48/15 8/44/13
f 8/44/13 37/43/12 39/47/14
f 35/37/7 1/36/6 4/49/16
f 4/49/16 40/50/17 35/37/7
f 40/50/17 4/49/16 6/48/15
f 6/48/15 39/47/14 40/50/17
f 38/46/9 7/45/9 5/51/9
f 5/51/9 41/52/9 38/46/9
f 41/52/9 5/51/9 3/53/9
f 3/53/9 42/54/9 41/52/9
f 42/54/9 3/53/9 2/42/9
f 2/42/9 36/41/9 42/54/9
f 31/31/3 17/55/3 20/56/3
f 20/56/3 32/32/3 31/31/3
f 32/32/18 20/56/19 19/57/20
f 19/57/20 43/58/21 32/32/18
f 22/59/22 44/60/23 43/58/21
f 43/58/21 19/57/20 22/59/22
f 23/61/24 45/62/25 44/60/23
f 44/60/23 22/59/22 23/61/24
f 14/63/26 46/64/27 45/62/25
f 45/62/25 23/61/24 14/63/26
f 13/65/28 47/66/29 46/64/27
f 46/64/27 14/63/26 13/65/28
f 12/12/4 48/67/4 47/68/4
f 47/68/4 13/13/4 12/12/4
f 48/69/9 12/70/9 11/71/9
f 11/71/9 49/72/9 48/69/9
f 24/73/9 50/74/9 49/72/9
f 49/72/9 11/71/9 24/73/9
f 21/75/9 51/76/9 50/74/9
f 50/74/9 24/73/9 21/75/9
f 18/77/9 52/78/9 51/76/9
f 51/76/9 21/75/9 18/77/9
f 17/55/9 31/31/9 52/78/9
f 52/78/9 18/77/9 17/55/9
f 53/79/30 30/30/31 32/32/18
f 32/32/18 43/58/21 53/79/30
f 37/43/12 25/25/11 28/28/32
f 28/28/32 54/80/33 37/43/12
f 54/80/33 28/28/32 30/30/31
f 30/30/31 53/79/30 54/80/33
f 55/81/34 53/79/30 43/58/21
f 43/58/21 44/60/23 55/81/34
f 39/47/14 37/43/12 54/80/33
f 54/80/33 56/82/35 39/47/14
f 56/82/35 54/80/33 53/79/30
f 53/79/30 55/81/34 56/82/35
f 57/83/36 55/81/34 44/60/23
f 44/60/23 45/62/25 57/83/36
f 40/50/17 39/47/14 56/82/35
f 56/82/35 58/84/37 40/50/17
f 58/84/37 56/82/35 55/81/34
f 55/81/34 57/83/36 58/84/37
f 59/85/38 57/83/36 45/62/25
f 45/62/25 46/64/27 59/85/38
f 35/37/7 40/50/17 58/84/37
f 58/84/37 60/86/39 35/37/7
f 60/86/39 58/84/37 57/83/36
f 57/83/36 59/85/38 60/86/39
f 61/87/40 59/85/38 46/64/27
f 46/64/27 47/66/29 61/87/40
f 34/38/8 35/37/7 60/86/39
f 60/86/39 62/88/41 34/38/8
f 62/88/41 60/86/39 59/85/38
f 59/85/38 61/87/40 62/88/41
f 63/89/4 61/90/4 47/68/4
f 47/68/4 48/67/4 63/89/4
f 33/33/4 34/34/4 62/91/4
f 62/91/4 64/92/4 33/33/4
f 64/92/4 62/91/4 61/90/4
f 61/90/4 63/89/4 64/92/4
f 65/93/9 63/94/9 48/69/9
f 48/69/9 49/72/9 65/93/9
f 36/41/9 33/40/9 64/95/9
f 64/95/9 66/96/9 36/41/9
f 66/96/9 64/95/9 63/94/9
f 63/94/9 65/93/9 66/96/9
f 67/97/9 65/93/9 49/72/9
f 49/72/9 50/74/9 67/97/9
f 42/54/9 36/41/9 66/96/9
f 66/96/9 68/98/9 42/54/9
f 68/98/9 66/96/9 65/93/9
f 65/93/9 67/97/9 68/98/9
f 69/99/9 67/97/9 50/74/9
f 50/74/9 51/76/9 69/99/9
f 41/52/9 42/54/9 68/98/9
f 68/98/9 70/100/9 41/52/9
f 70/100/9 68/98/9 67/97/9
f 67/97/9 69/99/9 70/100/9
f 71/101/9 69/99/9 51/76/9
f 51/76/9 52/78/9 71/101/9
f 38/46/9 41/52/9 70/100/9
f 70/100/9 72/102/9 38/46/9
f 72/102/9 70/100/9 69/99/9
f 69/99/9 71/101/9 72/102/9
f 52/78/9 31/31/9 29/29/9
f 29/29/9 71/101/9 52/78/9
f 71/101/9 29/29/9 27/27/9
f 27/27/9 72/102/9 71/101/9
f 72/102/9 27/27/9 26/26/9
f 26/26/9 38/46/9 72/102/9

