# This file uses centimeters as units for non-parametric coordinates.

mtllib SandPillar_002.mtl
g default
v -5.185504 -0.115806 -5.155937
v -4.685504 -0.115806 -5.020322
v -4.185504 -0.115806 -5.155937
v -5.185504 0.384194 -5.155937
v -4.685504 0.384194 -5.020322
v -4.185504 0.384194 -5.155937
v -5.185504 0.741349 -5.155937
v -4.685504 0.884194 -5.020322
v -4.185504 0.884194 -5.155937
v -5.313126 0.572464 -5.655937
v -4.685504 0.884194 -5.655937
v -4.057883 0.884194 -5.655937
v -5.185504 0.761398 -6.155937
v -4.685504 0.884194 -6.291552
v -4.185504 0.884194 -6.155937
v -5.185504 0.384194 -6.155937
v -4.685504 0.384194 -6.291552
v -4.185504 0.384194 -6.155937
v -5.185504 -0.115806 -6.155937
v -4.685504 -0.115806 -6.291552
v -4.185504 -0.115806 -6.155937
v -5.313126 -0.115806 -5.655937
v -4.685504 -0.115806 -5.655937
v -4.057883 -0.115806 -5.655937
v -4.057883 0.384194 -5.655937
v -5.313126 0.384194 -5.655937
vt 0.375000 0.000000
vt 0.500000 0.000000
vt 0.625000 0.000000
vt 0.375000 0.125000
vt 0.500000 0.125000
vt 0.625000 0.125000
vt 0.375000 0.250000
vt 0.500000 0.250000
vt 0.625000 0.250000
vt 0.375000 0.375000
vt 0.500000 0.375000
vt 0.625000 0.375000
vt 0.375000 0.500000
vt 0.500000 0.500000
vt 0.625000 0.500000
vt 0.375000 0.625000
vt 0.500000 0.625000
vt 0.625000 0.625000
vt 0.375000 0.750000
vt 0.500000 0.750000
vt 0.625000 0.750000
vt 0.375000 0.875000
vt 0.500000 0.875000
vt 0.625000 0.875000
vt 0.375000 1.000000
vt 0.500000 1.000000
vt 0.625000 1.000000
vt 0.875000 0.000000
vt 0.750000 0.000000
vt 0.875000 0.125000
vt 0.750000 0.125000
vt 0.875000 0.250000
vt 0.750000 0.250000
vt 0.125000 0.000000
vt 0.250000 0.000000
vt 0.125000 0.125000
vt 0.250000 0.125000
vt 0.125000 0.250000
vt 0.250000 0.250000
vn -0.261772 0.000000 0.965130
vn 0.000000 0.000000 1.000000
vn 0.010044 0.000000 0.999950
vn -0.261772 0.000000 0.965130
vn 0.261772 0.000000 0.965130
vn 0.261772 0.000000 0.965130
vn 0.045886 0.000000 0.998947
vn -0.261772 0.000000 0.965130
vn 0.261772 0.000000 0.965130
vn -0.362043 0.927081 -0.097186
vn -0.192071 0.980026 -0.051559
vn -0.186863 0.982374 0.004893
vn -0.355600 0.934597 0.008736
vn 0.000000 1.000000 0.000000
vn 0.000000 1.000000 0.000000
vn -0.182223 0.981339 0.061383
vn -0.344940 0.931405 0.116194
vn 0.000000 1.000000 0.000000
vn -0.261772 0.000000 -0.965130
vn 0.039207 0.000000 -0.999231
vn 0.008590 0.000000 -0.999963
vn -0.261772 0.000000 -0.965130
vn 0.261772 0.000000 -0.965130
vn 0.261772 0.000000 -0.965130
vn 0.000000 0.000000 -1.000000
vn -0.261772 0.000000 -0.965130
vn 0.261772 0.000000 -0.965130
vn 0.000000 -1.000000 0.000000
vn 0.000000 -1.000000 0.000000
vn 0.000000 -1.000000 0.000000
vn 0.000000 -1.000000 0.000000
vn 0.000000 -1.000000 0.000000
vn 0.000000 -1.000000 0.000000
vn 0.000000 -1.000000 0.000000
vn 0.000000 -1.000000 0.000000
vn 0.000000 -1.000000 0.000000
vn 1.000000 0.000000 0.000000
vn 0.968935 0.000000 -0.247314
vn 0.968935 0.000000 -0.247314
vn 1.000000 0.000000 0.000000
vn 0.968935 0.000000 0.247314
vn 0.968935 0.000000 0.247314
vn 0.968935 0.000000 -0.247314
vn 1.000000 0.000000 0.000000
vn 0.968935 0.000000 0.247314
vn -0.968935 0.000000 -0.247314
vn -1.000000 0.000000 0.000000
vn -0.999999 0.000000 -0.001645
vn -0.968935 0.000000 -0.247314
vn -0.968935 0.000000 0.247314
vn -0.968935 0.000000 0.247314
vn -0.999976 0.000000 -0.006929
vn -0.968935 0.000000 -0.247314
vn -0.968935 0.000000 0.247314
s 1
g pCube1
usemtl lambert4SG
f 1/1/1 2/2/2 5/5/3 4/4/4
f 2/2/2 3/3/5 6/6/6 5/5/3
f 4/4/4 5/5/3 8/8/7 7/7/8
f 5/5/3 6/6/6 9/9/9 8/8/7
s 2
f 7/7/10 8/8/11 11/11/12 10/10/13
f 8/8/11 9/9/14 12/12/15 11/11/12
f 10/10/13 11/11/12 14/14/16 13/13/17
f 11/11/12 12/12/15 15/15/18 14/14/16
s 3
f 13/13/19 14/14/20 17/17/21 16/16/22
f 14/14/20 15/15/23 18/18/24 17/17/21
f 16/16/22 17/17/21 20/20/25 19/19/26
f 17/17/21 18/18/24 21/21/27 20/20/25
s 4
f 19/19/28 20/20/29 23/23/30 22/22/31
f 20/20/29 21/21/32 24/24/33 23/23/30
f 22/22/31 23/23/30 2/26/34 1/25/35
f 23/23/30 24/24/33 3/27/36 2/26/34
s 5
f 24/29/37 21/28/38 18/30/39 25/31/40
f 3/3/41 24/29/37 25/31/40 6/6/42
f 25/31/40 18/30/39 15/32/43 12/33/44
f 6/6/42 25/31/40 12/33/44 9/9/45
s 6
f 19/34/46 22/35/47 26/37/48 16/36/49
f 22/35/47 1/1/50 4/4/51 26/37/48
f 16/36/49 26/37/48 10/39/52 13/38/53
f 26/37/48 4/4/51 7/7/54 10/39/52
g default
v -6.141009 0.047026 -4.821938
v -6.153509 0.546693 -4.661136
v -6.135267 1.046360 -4.821938
v -9.038294 0.150448 -4.821938
v -9.020052 0.650116 -4.661136
v -9.001811 1.149783 -4.821938
v -9.043771 0.000446 -5.321938
v -8.996334 1.299785 -5.321938
v -9.038294 0.150448 -5.821938
v -9.020052 0.650116 -5.982740
v -9.001811 1.149783 -5.821938
v -6.204395 0.047026 -5.821938
v -6.153509 0.546693 -5.982740
v -6.135267 1.046360 -5.821938
v -5.935447 -0.102976 -5.321938
v -6.061261 0.546693 -5.321938
v -6.257143 1.196363 -5.321938
v -9.490926 0.166973 -4.821938
v -9.472684 0.666640 -4.661136
v -9.472684 0.666640 -5.321938
v -9.496402 0.016971 -5.321938
v -9.454442 1.166307 -4.821938
v -9.448966 1.316310 -5.321938
v -9.472684 0.666640 -5.982740
v -9.490926 0.166973 -5.821938
v -9.454442 1.166307 -5.821938
v -9.107278 -0.068484 -4.579452
v -9.080963 0.652339 -4.340666
v -9.411773 0.664416 -4.340666
v -9.438089 -0.056406 -4.579452
v -9.115179 -0.284878 -5.321938
v -9.445989 -0.272801 -5.321938
v -9.054647 1.373162 -4.579452
v -9.385458 1.385239 -4.579452
v -9.046747 1.589557 -5.321938
v -9.377558 1.601634 -5.321938
v -9.107278 -0.068484 -6.064423
v -9.080963 0.652339 -6.303210
v -9.438089 -0.056406 -6.064423
v -9.411773 0.664416 -6.303210
v -9.054647 1.373162 -6.064423
v -9.385458 1.385239 -6.064423
v -6.472853 0.557122 -4.661135
v -6.491095 0.057455 -4.821938
v -6.496571 -0.092547 -5.321938
v -6.491094 0.057455 -5.821938
v -6.472853 0.557122 -5.982740
v -6.454611 1.056789 -5.821938
v -6.576487 1.206792 -5.321938
v -6.454611 1.056789 -4.821938
v -6.545291 0.559767 -4.709843
v -6.562188 0.096930 -4.858792
v -6.567261 -0.042016 -5.321938
v -6.562188 0.096930 -5.785083
v -6.545291 0.559767 -5.934033
v -6.528394 1.022604 -5.785083
v -6.650673 1.161550 -5.321938
v -6.528394 1.022604 -4.858792
v -6.612465 0.562219 -4.661136
v -6.630707 0.062552 -4.821938
v -6.636183 -0.087450 -5.321938
v -6.630707 0.062552 -5.821938
v -6.612465 0.562219 -5.982740
v -6.594223 1.061886 -5.821938
v -6.716099 1.211889 -5.321938
v -6.594223 1.061886 -4.821938
vt 0.375000 0.000000
vt 0.500000 0.000000
vt 0.625000 0.000000
vt 0.375000 0.250000
vt 0.500000 0.250000
vt 0.625000 0.250000
vt 0.375000 0.375000
vt 0.500000 0.375000
vt 0.625000 0.375000
vt 0.375000 0.500000
vt 0.500000 0.500000
vt 0.625000 0.500000
vt 0.375000 0.750000
vt 0.500000 0.750000
vt 0.625000 0.750000
vt 0.375000 0.875000
vt 0.500000 0.875000
vt 0.625000 0.875000
vt 0.375000 1.000000
vt 0.500000 1.000000
vt 0.625000 1.000000
vt 0.875000 0.000000
vt 0.750000 0.000000
vt 0.875000 0.250000
vt 0.750000 0.250000
vt 0.125000 0.000000
vt 0.250000 0.000000
vt 0.125000 0.250000
vt 0.250000 0.250000
vt 0.375000 0.250000
vt 0.500000 0.250000
vt 0.375000 0.375000
vt 0.625000 0.250000
vt 0.625000 0.375000
vt 0.500000 0.500000
vt 0.375000 0.500000
vt 0.625000 0.500000
vt 0.375000 0.250000
vt 0.500000 0.250000
vt 0.500000 0.250000
vt 0.375000 0.250000
vt 0.375000 0.375000
vt 0.375000 0.375000
vt 0.625000 0.250000
vt 0.625000 0.250000
vt 0.625000 0.375000
vt 0.625000 0.375000
vt 0.500000 0.500000
vt 0.375000 0.500000
vt 0.375000 0.500000
vt 0.500000 0.500000
vt 0.625000 0.500000
vt 0.625000 0.500000
vt 0.500000 0.111796
vt 0.375000 0.111796
vt 0.250000 0.111796
vt 0.125000 0.111796
vt 0.375000 0.638204
vt 0.500000 0.638204
vt 0.625000 0.638204
vt 0.875000 0.111796
vt 0.750000 0.111796
vt 0.625000 0.111796
vt 0.500000 0.115726
vt 0.375000 0.115726
vt 0.250000 0.115726
vt 0.125000 0.115726
vt 0.375000 0.634274
vt 0.500000 0.634274
vt 0.625000 0.634274
vt 0.875000 0.115726
vt 0.750000 0.115726
vt 0.625000 0.115726
vt 0.500000 0.119371
vt 0.375000 0.119371
vt 0.250000 0.119371
vt 0.125000 0.119371
vt 0.375000 0.630629
vt 0.500000 0.630629
vt 0.625000 0.630629
vt 0.875000 0.119371
vt 0.750000 0.119371
vt 0.625000 0.119371
vn -0.009543 -0.306282 0.951893
vn -0.000164 -0.012700 0.999919
vn -0.106693 -0.003045 0.994287
vn -0.103857 -0.301477 0.947800
vn 0.009993 0.306000 0.951979
vn -0.087167 0.308062 0.947365
vn -0.999334 0.036484 0.000000
vn -0.999334 0.036484 0.000000
vn -0.999334 0.036484 0.000000
vn -0.999334 0.036484 0.000000
vn -0.999334 0.036484 0.000000
vn -0.999334 0.036484 0.000000
vn -0.999334 0.036484 -0.000000
vn -0.999334 0.036484 -0.000000
vn -0.999334 0.036484 0.000000
vn -0.112346 -0.300427 -0.947165
vn -0.111071 0.010414 -0.993758
vn 0.000242 0.015635 -0.999878
vn -0.010520 -0.305669 -0.952080
vn -0.087167 0.308062 -0.947365
vn 0.009993 0.306000 -0.951979
vn 0.955401 0.021074 -0.294560
vn 0.984890 0.086065 -0.150280
vn 0.994627 0.102291 -0.015963
vn 0.998069 0.054005 -0.030693
vn 0.988368 0.151979 0.005588
vn 0.988383 0.151981 0.000000
vn 0.985923 0.118178 0.118280
vn 0.967805 0.083234 0.237540
vn 0.988368 0.151979 -0.005588
vn 0.032640 0.999467 0.000000
vn 0.031333 0.959431 -0.280196
vn -0.041752 0.953951 -0.297043
vn -0.105615 0.994407 0.000000
vn 0.031333 0.959431 0.280197
vn -0.041752 0.953951 0.297043
vn -0.023599 -0.959253 -0.281563
vn -0.023664 -0.999420 0.024501
vn -0.107733 -0.994129 0.010086
vn -0.100252 -0.954255 -0.281687
vn -0.021947 -0.958794 0.283252
vn -0.093980 -0.954429 0.283256
vn -0.011466 -0.314066 0.949332
vn -0.011466 -0.314066 0.949332
vn -0.011466 -0.314066 0.949332
vn -0.011466 -0.314066 0.949332
vn -0.035025 -0.959368 0.279977
vn -0.035025 -0.959368 0.279977
vn -0.035025 -0.959368 0.279977
vn -0.035025 -0.959368 0.279977
vn 0.011466 0.314066 0.949332
vn 0.011466 0.314066 0.949332
vn 0.011466 0.314066 0.949332
vn 0.011466 0.314066 0.949332
vn 0.035025 0.959368 0.279977
vn 0.035025 0.959368 0.279977
vn 0.035025 0.959368 0.279977
vn 0.035025 0.959368 0.279977
vn -0.011466 -0.314066 -0.949332
vn -0.011466 -0.314066 -0.949332
vn -0.011466 -0.314066 -0.949332
vn -0.011466 -0.314066 -0.949332
vn -0.035025 -0.959368 -0.279977
vn -0.035025 -0.959368 -0.279977
vn -0.035025 -0.959368 -0.279977
vn -0.035025 -0.959368 -0.279977
vn 0.035025 0.959368 -0.279977
vn 0.035025 0.959368 -0.279977
vn 0.035025 0.959368 -0.279977
vn 0.035025 0.959368 -0.279977
vn 0.011466 0.314066 -0.949332
vn 0.011466 0.314066 -0.949332
vn 0.011466 0.314066 -0.949332
vn 0.011466 0.314066 -0.949332
vn 0.977329 -0.097254 0.188067
vn 0.977329 -0.097254 0.188067
vn 0.977329 -0.097254 0.188067
vn 0.977329 -0.097254 0.188067
vn -0.981819 -0.025730 0.188069
vn -0.981819 -0.025730 0.188069
vn -0.981819 -0.025730 0.188069
vn -0.981819 -0.025730 0.188069
vn 0.968734 -0.240605 0.060523
vn 0.968734 -0.240605 0.060523
vn 0.968734 -0.240605 0.060523
vn 0.968734 -0.240605 0.060523
vn -0.983700 -0.169327 0.060523
vn -0.983700 -0.169327 0.060523
vn -0.983700 -0.169327 0.060523
vn -0.983700 -0.169327 0.060523
vn 0.981819 0.025729 0.188067
vn 0.981819 0.025729 0.188067
vn 0.981819 0.025729 0.188067
vn 0.981819 0.025729 0.188067
vn -0.977329 0.097254 0.188069
vn -0.977329 0.097254 0.188069
vn -0.977329 0.097254 0.188069
vn -0.977329 0.097254 0.188069
vn 0.983700 0.169326 0.060523
vn 0.983700 0.169326 0.060523
vn 0.983700 0.169326 0.060523
vn 0.983700 0.169326 0.060523
vn -0.968734 0.240607 0.060523
vn -0.968734 0.240607 0.060523
vn -0.968734 0.240607 0.060523
vn -0.968734 0.240607 0.060523
vn 0.977329 -0.097254 -0.188067
vn 0.977329 -0.097254 -0.188067
vn 0.977329 -0.097254 -0.188067
vn 0.977329 -0.097254 -0.188067
vn -0.981819 -0.025730 -0.188069
vn -0.981819 -0.025730 -0.188069
vn -0.981819 -0.025730 -0.188069
vn -0.981819 -0.025730 -0.188069
vn 0.968734 -0.240605 -0.060523
vn 0.968734 -0.240605 -0.060523
vn 0.968734 -0.240605 -0.060523
vn 0.968734 -0.240605 -0.060523
vn -0.983700 -0.169327 -0.060523
vn -0.983700 -0.169327 -0.060523
vn -0.983700 -0.169327 -0.060523
vn -0.983700 -0.169327 -0.060523
vn 0.983700 0.169326 -0.060523
vn 0.983700 0.169326 -0.060523
vn 0.983700 0.169326 -0.060523
vn 0.983700 0.169326 -0.060523
vn -0.968734 0.240607 -0.060523
vn -0.968734 0.240607 -0.060523
vn -0.968734 0.240607 -0.060523
vn -0.968734 0.240607 -0.060523
vn 0.981819 0.025729 -0.188067
vn 0.981819 0.025729 -0.188067
vn 0.981819 0.025729 -0.188067
vn 0.981819 0.025729 -0.188067
vn -0.977329 0.097254 -0.188069
vn -0.977329 0.097254 -0.188069
vn -0.977329 0.097254 -0.188069
vn -0.977329 0.097254 -0.188069
vn 0.001800 -0.000066 0.999998
vn -0.008700 -0.306046 0.951977
vn -0.032413 -0.957224 0.287527
vn -0.034812 -0.999394 0.000000
vn -0.032413 -0.957224 -0.287526
vn -0.008700 -0.306046 -0.951977
vn 0.001801 -0.000066 -0.999998
vn 0.013640 0.305866 -0.951977
vn -0.038109 0.954429 -0.295994
vn 0.122207 0.992505 -0.000000
vn -0.038109 0.954429 0.295994
vn 0.013639 0.305866 0.951977
vn 0.016819 -0.000614 0.999858
vn 0.003683 -0.306465 0.951875
vn -0.020363 -0.957565 0.287497
vn -0.019781 -0.999804 -0.000000
vn -0.020363 -0.957565 -0.287497
vn 0.003683 -0.306465 -0.951875
vn 0.016819 -0.000614 -0.999858
vn 0.026020 0.305381 -0.951875
vn 0.056095 0.958877 -0.278225
vn 0.050309 0.998734 -0.000000
vn 0.056095 0.958877 0.278225
vn 0.026020 0.305381 0.951875
vn 0.000000 0.000000 1.000000
vn -0.011170 -0.305957 0.951980
vn -0.034943 -0.957135 0.287528
vn -0.036484 -0.999334 -0.000000
vn -0.034943 -0.957135 -0.287528
vn -0.011170 -0.305957 -0.951980
vn 0.000000 0.000000 -1.000000
vn 0.011170 0.305957 -0.951980
vn 0.035938 0.958350 -0.283326
vn 0.037474 0.999298 0.000000
vn 0.035938 0.958350 0.283326
vn 0.011170 0.305957 0.951980
s 1
g pPillar group1
usemtl lambert4SG
f 27/40/55 28/41/56 69/93/57 70/94/58
f 28/41/56 29/42/59 76/102/60 69/93/57
s 2
f 44/69/61 45/70/62 46/47/63 47/71/64
f 45/70/62 48/72/65 49/73/66 46/47/63
f 47/71/64 46/47/63 50/74/67 51/75/68
f 46/47/63 49/73/66 52/76/69 50/74/67
s 3
f 72/97/70 73/98/71 39/53/72 38/52/73
f 73/98/71 74/99/74 40/54/75 39/53/72
s 4
f 38/52/76 39/53/77 42/56/78 41/55/79
f 39/53/77 40/54/80 43/57/81 42/56/78
f 41/55/79 42/56/78 28/59/82 27/58/83
f 42/56/78 43/57/81 29/60/84 28/59/82
s 5
f 43/62/85 40/61/86 74/100/87 75/101/88
f 29/42/89 43/62/85 75/101/88 76/102/90
s 6
f 38/65/91 41/66/92 71/95/93 72/96/94
f 41/66/92 27/40/95 70/94/96 71/95/93
s off
f 53/77/97 54/78/98 55/79/99 56/80/100
f 57/81/101 53/77/102 56/80/103 58/82/104
f 54/78/105 59/83/106 60/84/107 55/79/108
f 59/83/109 61/85/110 62/86/111 60/84/112
f 64/87/113 63/88/114 65/89/115 66/90/116
f 63/88/117 57/81/118 58/82/119 65/89/120
f 61/85/121 67/91/122 68/92/123 62/86/124
f 67/91/125 64/87/126 66/90/127 68/92/128
f 30/43/129 31/44/130 54/78/131 53/77/132
f 45/70/133 44/69/134 56/80/135 55/79/136
f 33/46/137 30/43/138 53/77/139 57/81/140
f 44/69/141 47/71/142 58/82/143 56/80/144
f 31/44/145 32/45/146 59/83/147 54/78/148
f 48/72/149 45/70/150 55/79/151 60/84/152
f 32/45/153 34/48/154 61/85/155 59/83/156
f 49/73/157 48/72/158 60/84/159 62/86/160
f 36/50/161 35/49/162 63/88/163 64/87/164
f 51/75/165 50/74/166 66/90/167 65/89/168
f 35/49/169 33/46/170 57/81/171 63/88/172
f 47/71/173 51/75/174 65/89/175 58/82/176
f 34/48/177 37/51/178 67/91/179 61/85/180
f 52/76/181 49/73/182 62/86/183 68/92/184
f 37/51/185 36/50/186 64/87/187 67/91/188
f 50/74/189 52/76/190 68/92/191 66/90/192
s 1
f 70/94/58 69/93/57 77/103/193 78/104/194
s 6
f 71/95/93 70/94/96 78/104/195 79/105/196
f 72/96/94 71/95/93 79/105/196 80/106/197
s 3
f 80/107/198 81/108/199 73/98/71 72/97/70
f 81/108/199 82/109/200 74/99/74 73/98/71
s 5
f 75/101/88 74/100/87 82/110/201 83/111/202
f 76/102/90 75/101/88 83/111/202 84/112/203
s 1
f 69/93/57 76/102/60 84/112/204 77/103/193
f 78/104/194 77/103/193 85/113/205 86/114/206
s 6
f 79/105/196 78/104/195 86/114/207 87/115/208
f 80/106/197 79/105/196 87/115/208 88/116/209
s 3
f 88/117/210 89/118/211 81/108/199 80/107/198
f 89/118/211 90/119/212 82/109/200 81/108/199
s 5
f 83/111/202 82/110/201 90/120/213 91/121/214
f 84/112/203 83/111/202 91/121/214 92/122/215
s 1
f 77/103/193 84/112/204 92/122/216 85/113/205
f 86/114/206 85/113/205 31/44/217 30/43/218
s 6
f 87/115/208 86/114/207 30/43/219 33/68/220
f 88/116/209 87/115/208 33/68/220 35/67/221
s 3
f 35/49/222 36/50/223 89/118/211 88/117/210
f 36/50/223 37/51/224 90/119/212 89/118/211
s 5
f 91/121/214 90/120/213 37/63/225 34/64/226
f 92/122/215 91/121/214 34/64/226 32/45/227
s 1
f 85/113/205 92/122/216 32/45/228 31/44/217
